<?xml version="1.0" encoding="iso-8859-1"?>
<!-- Generator: Adobe Illustrator 19.0.0, SVG Export Plug-In . SVG Version: 6.00 Build 0)  -->
<svg version="1.1" id="Capa_1" xmlns="http://www.w3.org/2000/svg" xmlns:xlink="http://www.w3.org/1999/xlink" x="0px" y="0px"
   viewBox="0 0 512 512" style="enable-background:new 0 0 512 512;" xml:space="preserve">
<path style="fill:#A5E9FF;" d="M491.855,298.274l-90.592,24.274l-32.109-18.538L388.213,271H435v-30h-46.787l-19.058-33.01
  l32.109-18.538l90.592,24.274l7.764-28.978l-61.614-16.509l47.197-27.249l-15-25.98l-47.196,27.249l16.51-61.613l-28.979-7.765
  l-24.273,90.591l-32.109,18.538L335.097,149l23.394-40.519l-25.98-15L309.116,134H271V96.923l66.317-66.317L316.104,9.394
  L271,54.498V0h-30v54.498L195.896,9.394l-21.213,21.213L241,96.923V134h-38.116L179.49,93.481l-25.98,15L176.903,149l-19.058,33.01
  l-32.109-18.538L101.463,72.88l-28.979,7.765l16.51,61.613L41.798,115.01l-15,25.98l47.197,27.249l-61.614,16.509l7.764,28.978
  l90.592-24.274l32.109,18.538L123.787,241H77v30h46.787l19.058,33.01l-32.109,18.538l-90.592-24.274l-7.764,28.978l61.614,16.509
  L26.798,371.01l15,25.98l47.196-27.249l-16.51,61.613l28.979,7.765l24.273-90.591l32.109-18.538L176.903,363l-23.394,40.519
  l25.98,15L202.884,378H241v37.077l-66.317,66.317l21.213,21.213L241,457.502V512h30v-54.498l45.104,45.104l21.213-21.213
  L271,415.077V378h38.116l23.394,40.519l25.98-15L335.097,363l19.058-33.01l32.109,18.538l24.273,90.591l28.979-7.765l-16.51-61.613
  l47.196,27.249l15-25.98l-47.197-27.249l61.614-16.509L491.855,298.274z M362.232,256l-19.058,33.01L286,256l57.175-33.01
  L362.232,256z M309.116,164l19.058,33.01L271,230.02V164H309.116z M202.884,164H241v66.02l-57.174-33.01L202.884,164z M149.768,256
  l19.058-33.01L226,256l-57.175,33.01L149.768,256z M202.884,348l-19.058-33.01L241,281.98V348H202.884z M309.116,348H271v-66.02
  l57.174,33.01L309.116,348z"/>
<path style="fill:#87DAFF;" d="M491.855,298.274l-90.592,24.274l-32.109-18.538L388.213,271H435v-30h-46.787l-19.058-33.01
  l32.109-18.538l90.592,24.274l7.764-28.978l-61.614-16.509l47.197-27.249l-15-25.98l-47.196,27.249l16.51-61.613l-28.979-7.765
  l-24.273,90.591l-32.109,18.538L335.097,149l23.394-40.519l-25.98-15L309.116,134H271V96.923l66.317-66.317L316.104,9.394
  L271,54.498V0h-15v512h15v-54.498l45.104,45.104l21.213-21.213L271,415.077V378h38.116l23.394,40.519l25.98-15L335.097,363
  l19.058-33.01l32.109,18.538l24.273,90.591l28.979-7.765l-16.51-61.613l47.196,27.249l15-25.98l-47.197-27.249l61.614-16.509
  L491.855,298.274z M271,164h38.116l19.058,33.01L271,230.02V164z M309.116,348H271v-66.02l57.174,33.01L309.116,348z
   M343.174,289.01L286,256l57.175-33.01L362.232,256L343.174,289.01z"/>
<g>
</g>
<g>
</g>
<g>
</g>
<g>
</g>
<g>
</g>
<g>
</g>
<g>
</g>
<g>
</g>
<g>
</g>
<g>
</g>
<g>
</g>
<g>
</g>
<g>
</g>
<g>
</g>
<g>
</g>
</svg>
