<?xml version="1.0" encoding="iso-8859-1"?>
<!-- Generator: Adobe Illustrator 19.0.0, SVG Export Plug-In . SVG Version: 6.00 Build 0)  -->
<svg version="1.1" id="Capa_1" xmlns="http://www.w3.org/2000/svg" xmlns:xlink="http://www.w3.org/1999/xlink" x="0px" y="0px"
   viewBox="0 0 512 512" style="enable-background:new 0 0 512 512;" xml:space="preserve">
<path style="fill:#8CCDDD;" d="M504.5,248.501h-11.15l4.297-4.296c2.929-2.929,2.929-7.678,0-10.606
  c-2.93-2.929-7.678-2.929-10.607,0l-14.904,14.902h-28.515l46.347-46.346c2.929-2.929,2.929-7.678,0-10.606
  c-2.93-2.929-7.678-2.929-10.607,0l-56.953,56.952H396.23l26.422-26.421c2.929-2.929,2.929-7.678,0-10.606s-7.677-2.93-10.607,0
  l-37.029,37.027h-34.81l31.74-31.74h14.443c4.143,0,7.5-3.358,7.5-7.5c0-3.975-3.094-7.218-7.004-7.475
  c2.583-2.946,2.477-7.428-0.333-10.238c-2.93-2.929-7.678-2.929-10.607,0l-10.213,10.213h-44.885l24.614-24.614h52.364
  c4.143,0,7.5-3.358,7.5-7.5s-3.357-7.5-7.5-7.5h-37.364l18.511-18.511h80.543c4.143,0,7.5-3.358,7.5-7.5s-3.357-7.5-7.5-7.5h-65.543
  l20.163-20.164h21.076c4.143,0,7.5-3.358,7.5-7.5s-3.357-7.5-7.5-7.5h-6.076l7.884-7.884c2.929-2.929,2.929-7.678,0-10.606
  s-7.677-2.929-10.607,0l-7.884,7.884V76.79c0-4.142-3.357-7.5-7.5-7.5s-7.5,3.358-7.5,7.5v21.076l-20.163,20.163V52.486
  c0-4.142-3.357-7.5-7.5-7.5s-7.5,3.358-7.5,7.5v80.543l-18.511,18.511v-37.364c0-4.142-3.357-7.5-7.5-7.5s-7.5,3.358-7.5,7.5v52.364
  l-24.615,24.615v-44.886l10.214-10.214c2.929-2.929,2.929-7.678,0-10.606c-2.811-2.81-7.292-2.916-10.239-0.333
  c-0.256-3.91-3.5-7.004-7.475-7.004c-4.143,0-7.5,3.358-7.5,7.5v14.444l-31.739,31.74v-34.81l37.028-37.028
  c2.929-2.929,2.929-7.678,0-10.606c-2.93-2.929-7.678-2.93-10.607,0l-26.421,26.42V89.594l56.953-56.954
  c2.929-2.929,2.929-7.678,0-10.606c-2.93-2.929-7.678-2.929-10.607,0L263.5,68.38V39.864l14.903-14.903
  c2.929-2.929,2.929-7.678,0-10.606c-2.93-2.929-7.678-2.929-10.607,0l-4.296,4.296V7.501c0-4.142-3.357-7.5-7.5-7.5
  c-4.142,0-7.5,3.358-7.5,7.5v11.15l-4.296-4.296c-2.929-2.929-7.678-2.929-10.606,0c-2.929,2.929-2.929,7.678,0,10.606L248.5,39.864
  v28.517l-46.346-46.347c-2.928-2.929-7.677-2.929-10.606,0s-2.929,7.678,0,10.606L248.5,89.593v26.178l-26.421-26.42
  c-2.929-2.929-7.678-2.929-10.606,0c-2.929,2.929-2.929,7.678,0,10.606l37.027,37.027v34.811l-31.74-31.74v-14.444
  c0-4.142-3.358-7.5-7.5-7.5c-3.975,0-7.219,3.094-7.475,7.004c-2.946-2.583-7.428-2.477-10.238,0.333
  c-2.929,2.929-2.929,7.678,0,10.606l10.213,10.213v44.887l-24.614-24.614v-52.365c0-4.142-3.358-7.5-7.5-7.5s-7.5,3.358-7.5,7.5
  v37.365l-18.511-18.511V52.486c0-4.142-3.358-7.5-7.5-7.5s-7.5,3.358-7.5,7.5v65.543l-20.164-20.164V76.79
  c0-4.142-3.358-7.5-7.5-7.5s-7.5,3.358-7.5,7.5v6.077l-7.884-7.884c-2.929-2.929-7.678-2.929-10.606,0
  c-2.929,2.929-2.929,7.678,0,10.606l7.884,7.884h-6.077c-4.142,0-7.5,3.358-7.5,7.5s3.358,7.5,7.5,7.5h21.077l20.164,20.164H52.485
  c-4.142,0-7.5,3.358-7.5,7.5s3.358,7.5,7.5,7.5h80.543l18.511,18.511h-37.365c-4.142,0-7.5,3.358-7.5,7.5s3.358,7.5,7.5,7.5h52.365
  l24.614,24.614h-44.887l-10.213-10.213c-2.929-2.929-7.678-2.929-10.606,0c-2.811,2.81-2.917,7.292-0.333,10.238
  c-3.91,0.256-7.004,3.5-7.004,7.475c0,4.142,3.358,7.5,7.5,7.5h14.444l31.74,31.74h-34.811l-37.027-37.027
  c-2.929-2.929-7.678-2.929-10.606,0c-2.929,2.929-2.929,7.678,0,10.606l26.421,26.421H89.592l-56.953-56.953
  c-2.929-2.929-7.678-2.929-10.606,0c-2.929,2.929-2.929,7.678,0,10.606l46.346,46.346H39.863L24.96,233.598
  c-2.929-2.929-7.678-2.929-10.606,0c-2.929,2.929-2.929,7.678,0,10.606l4.296,4.296H7.5c-4.142,0-7.5,3.358-7.5,7.5
  c0,4.142,3.358,7.5,7.5,7.5h11.15l-4.296,4.296c-2.929,2.929-2.929,7.678,0,10.606c1.464,1.464,3.384,2.197,5.303,2.197
  s3.839-0.732,5.303-2.197l14.903-14.901H68.38l-46.347,46.346c-2.929,2.929-2.929,7.678,0,10.606
  c1.464,1.465,3.384,2.197,5.303,2.197s3.839-0.732,5.303-2.197l56.953-56.952h26.178l-26.42,26.421
  c-2.929,2.929-2.929,7.678,0,10.606c1.464,1.464,3.384,2.197,5.303,2.197s3.839-0.732,5.303-2.197l37.027-37.027h34.811
  l-31.74,31.74H125.61c-4.142,0-7.5,3.358-7.5,7.5c0,3.975,3.094,7.219,7.004,7.475c-2.583,2.946-2.478,7.428,0.333,10.238
  c1.464,1.464,3.384,2.197,5.303,2.197s3.839-0.732,5.303-2.197l10.213-10.213h44.887l-24.614,24.614h-52.365
  c-4.142,0-7.5,3.358-7.5,7.5s3.358,7.5,7.5,7.5h37.365l-18.511,18.511H52.485c-4.142,0-7.5,3.358-7.5,7.5s3.358,7.5,7.5,7.5h65.543
  L97.864,403.53H76.789c-4.142,0-7.5,3.358-7.5,7.5s3.358,7.5,7.5,7.5h6.077l-7.884,7.884c-2.929,2.929-2.929,7.678,0,10.606
  c1.464,1.464,3.384,2.197,5.303,2.197s3.839-0.732,5.303-2.197l7.884-7.884v6.077c0,4.142,3.358,7.5,7.5,7.5s7.5-3.358,7.5-7.5
  v-21.077l20.164-20.164v65.543c0,4.142,3.358,7.5,7.5,7.5s7.5-3.358,7.5-7.5v-80.543l18.511-18.511v37.365
  c0,4.142,3.358,7.5,7.5,7.5s7.5-3.358,7.5-7.5v-52.365l24.614-24.614v44.887l-10.213,10.213c-2.929,2.929-2.929,7.678,0,10.606
  c2.81,2.81,7.292,2.916,10.238,0.333c0.256,3.91,3.5,7.004,7.475,7.004c4.142,0,7.5-3.358,7.5-7.5v-14.444l31.74-31.74v34.811
  l-37.027,37.027c-2.929,2.929-2.929,7.678,0,10.606c1.464,1.464,3.384,2.197,5.303,2.197s3.839-0.732,5.303-2.197l26.421-26.421
  v26.178l-56.953,56.953c-2.929,2.929-2.929,7.678,0,10.606c2.929,2.929,7.678,2.929,10.606,0l46.346-46.347v28.517l-14.903,14.903
  c-2.929,2.929-2.929,7.678,0,10.606c2.929,2.929,7.678,2.929,10.606,0l4.296-4.296v11.15c0,4.142,3.358,7.5,7.5,7.5
  c4.143,0,7.5-3.358,7.5-7.5v-11.15l4.296,4.296c1.465,1.464,3.385,2.197,5.304,2.197s3.839-0.732,5.304-2.197
  c2.929-2.929,2.929-7.678,0-10.606L263.5,472.138v-28.516l46.346,46.347c1.465,1.465,3.384,2.197,5.304,2.197
  c1.919,0,3.839-0.732,5.304-2.197c2.929-2.929,2.929-7.678,0-10.606L263.5,422.408V396.23l26.421,26.421
  c2.93,2.929,7.678,2.929,10.607,0s2.929-7.678,0-10.606L263.5,375.017v-34.81l31.739,31.74v14.444c0,4.142,3.357,7.5,7.5,7.5
  c3.975,0,7.219-3.094,7.475-7.004c1.411,1.237,3.171,1.864,4.935,1.864c1.919,0,3.839-0.732,5.304-2.197
  c2.929-2.929,2.929-7.678,0-10.606l-10.214-10.214v-44.886l24.615,24.615v52.364c0,4.142,3.357,7.5,7.5,7.5s7.5-3.358,7.5-7.5
  v-37.364l18.511,18.511v80.543c0,4.142,3.357,7.5,7.5,7.5s7.5-3.358,7.5-7.5v-65.543l20.163,20.163v21.076
  c0,4.142,3.357,7.5,7.5,7.5s7.5-3.358,7.5-7.5v-6.076l7.884,7.884c1.465,1.465,3.384,2.197,5.304,2.197
  c1.919,0,3.839-0.732,5.304-2.197c2.929-2.929,2.929-7.678,0-10.606l-7.884-7.884h6.076c4.143,0,7.5-3.358,7.5-7.5
  s-3.357-7.5-7.5-7.5h-21.076l-20.163-20.164h65.543c4.143,0,7.5-3.358,7.5-7.5s-3.357-7.5-7.5-7.5h-80.543l-18.511-18.511h37.364
  c4.143,0,7.5-3.358,7.5-7.5s-3.357-7.5-7.5-7.5h-52.364l-24.614-24.614h44.885l10.213,10.213c1.465,1.464,3.385,2.197,5.304,2.197
  s3.839-0.732,5.304-2.197c2.81-2.81,2.916-7.292,0.333-10.238c3.91-0.257,7.004-3.5,7.004-7.475c0-4.142-3.357-7.5-7.5-7.5h-14.443
  l-31.74-31.74h34.81l37.028,37.027c1.465,1.464,3.385,2.197,5.304,2.197s3.839-0.732,5.304-2.197c2.929-2.929,2.929-7.678,0-10.606
  l-26.424-26.422h26.178l56.953,56.953c1.465,1.464,3.385,2.197,5.304,2.197s3.839-0.732,5.304-2.197
  c2.929-2.929,2.929-7.678,0-10.606l-46.348-46.347h28.515l14.903,14.903c1.465,1.464,3.385,2.197,5.304,2.197
  s3.839-0.732,5.304-2.197c2.929-2.929,2.929-7.678,0-10.606l-4.297-4.296h11.15c4.143,0,7.5-3.358,7.5-7.5
  S508.643,248.501,504.5,248.501z M350.732,216.761l-31.74,31.74h-22.093l-12.034-12.034c1.157-0.344,2.248-0.972,3.162-1.886
  l17.82-17.82L350.732,216.761L350.732,216.761z M256,283.165l-27.175-27.175L256,228.815l27.175,27.175L256,283.165z
   M295.239,161.269v44.886l-17.819,17.819c-0.914,0.914-1.542,2.004-1.885,3.161L263.5,215.102v-22.093L295.239,161.269z
   M216.76,161.268l31.74,31.74v22.094l-12.034,12.034c-0.344-1.157-0.972-2.248-1.886-3.162l-17.82-17.82L216.76,161.268
  L216.76,161.268z M161.267,216.761h44.887l17.82,17.82c0.914,0.914,2.004,1.542,3.162,1.886l-12.035,12.034h-22.094L161.267,216.761
  z M161.267,295.241l31.74-31.74h22.117l12.029,12.029c-1.164,0.342-2.261,0.972-3.179,1.89l-17.82,17.82L161.267,295.241
  L161.267,295.241z M216.76,350.734v-44.887l17.82-17.82c0.918-0.918,1.548-2.015,1.891-3.179l12.029,12.029v22.117L216.76,350.734z
   M295.239,350.733L263.5,318.994v-22.116l12.03-12.03c0.342,1.164,0.972,2.261,1.89,3.179l17.819,17.819V350.733z M350.732,295.241
  h-44.885l-17.82-17.82c-0.919-0.918-2.016-1.548-3.18-1.89l12.029-12.029h22.116L350.732,295.241z"/>
<g>
</g>
<g>
</g>
<g>
</g>
<g>
</g>
<g>
</g>
<g>
</g>
<g>
</g>
<g>
</g>
<g>
</g>
<g>
</g>
<g>
</g>
<g>
</g>
<g>
</g>
<g>
</g>
<g>
</g>
</svg>
