<?xml version="1.0" encoding="iso-8859-1"?>
<!-- Generator: Adobe Illustrator 19.0.0, SVG Export Plug-In . SVG Version: 6.00 Build 0)  -->
<svg version="1.1" id="Capa_1" xmlns="http://www.w3.org/2000/svg" xmlns:xlink="http://www.w3.org/1999/xlink" x="0px" y="0px"
   viewBox="0 0 511.993 511.993" style="enable-background:new 0 0 511.993 511.993;" xml:space="preserve">
<polygon style="fill:#B7E4F8;" points="462.225,330.578 448.754,303.772 405.978,325.267 357.729,297.41 442.368,256.827
  357.048,214.977 405.978,186.727 448.754,208.222 462.225,181.416 437.07,168.776 474.536,147.145 459.536,121.165 422.07,142.796
  423.701,114.692 393.752,112.954 390.979,160.747 342.73,188.603 349.902,95.012 271,147.978 271,91.478 311.004,65.18
  294.523,40.111 271,55.576 271,12.314 241,12.314 241,55.575 217.478,40.111 200.997,65.18 241,91.478 241,147.189 163.534,94.182
  169.953,188.997 121.022,160.747 118.249,112.954 88.3,114.692 89.931,142.796 52.465,121.165 37.465,147.145 74.931,168.776
  49.776,181.416 63.247,208.222 106.023,186.727 154.271,214.584 69.632,255.167 154.953,297.017 106.023,325.267 63.247,303.772
  49.776,330.578 74.931,343.218 37.465,364.849 52.465,390.829 89.931,369.198 88.3,397.302 118.249,399.04 121.022,351.247
  169.271,323.392 162.098,416.982 241,364.017 241,420.516 200.997,446.814 217.478,471.883 241,456.419 241,499.68 271,499.68
  271,456.418 294.523,471.883 311.004,446.814 271,420.516 271,364.805 348.466,417.812 342.048,322.997 390.979,351.247
  393.752,399.04 423.701,397.302 422.07,369.198 459.536,390.829 474.536,364.849 437.07,343.218 "/>
<polygon style="fill:#93D6F4;" points="462.225,330.578 448.754,303.772 405.978,325.267 357.729,297.41 442.368,256.827
  357.048,214.977 405.978,186.727 448.754,208.222 462.225,181.416 437.07,168.776 474.536,147.145 459.536,121.165 422.07,142.796
  423.701,114.692 393.752,112.954 390.979,160.747 342.73,188.603 349.902,95.012 271,147.978 271,91.478 311.004,65.18
  294.523,40.111 271,55.576 271,12.314 256.001,12.314 256.001,499.68 271,499.68 271,456.418 294.523,471.883 311.004,446.814
  271,420.516 271,364.805 348.466,417.812 342.048,322.997 390.979,351.247 393.752,399.04 423.701,397.302 422.07,369.198
  459.536,390.829 474.536,364.849 437.07,343.218 "/>
<polygon style="fill:#B7E4F8;" points="133.652,447.937 112.439,426.724 104.189,434.974 95.94,426.724 74.728,447.937
  82.978,456.186 74.728,464.436 95.94,485.649 104.189,477.399 112.439,485.649 133.652,464.436 125.402,456.186 "/>
<polygon style="fill:#93D6F4;" points="426.606,36.891 405.394,15.678 397.144,23.928 388.895,15.678 367.682,36.891
  375.931,45.141 367.682,53.391 388.895,74.603 397.144,66.353 405.394,74.603 426.606,53.391 418.356,45.141 "/>
<rect x="6.213" y="240.991" transform="matrix(-0.7071 -0.7071 0.7071 -0.7071 -144.7998 452.0031)" style="fill:#B7E4F8;" width="30" height="30"/>
<g>

    <rect x="379.776" y="443.543" transform="matrix(-0.7071 -0.7071 0.7071 -0.7071 349.6848 1061.9308)" style="fill:#93D6F4;" width="30" height="30"/>

    <rect x="475.78" y="241.002" transform="matrix(-0.7071 -0.7071 0.7071 -0.7071 656.7936 784.0564)" style="fill:#93D6F4;" width="30" height="30"/>
</g>
<rect x="81.121" y="38.451" transform="matrix(-0.7071 -0.7071 0.7071 -0.7071 126.2942 159.2135)" style="fill:#B7E4F8;" width="30" height="30"/>
<path style="fill:#DBF1FB;" d="M256,198.33c-31.797,0-57.666,25.869-57.666,57.667s25.869,57.667,57.666,57.667
  c31.798,0,57.667-25.869,57.667-57.667S287.798,198.33,256,198.33z M256,283.664c-15.255,0-27.666-12.411-27.666-27.667
  c0-15.256,12.411-27.667,27.666-27.667c15.256,0,27.667,12.411,27.667,27.667C283.667,271.253,271.256,283.664,256,283.664z"/>
<path style="fill:#B7E4F8;" d="M256,198.33v30c15.256,0,27.667,12.411,27.667,27.667c0,15.256-12.411,27.667-27.667,27.667v30
  c31.798,0,57.667-25.869,57.667-57.667S287.798,198.33,256,198.33z"/>
<g>
</g>
<g>
</g>
<g>
</g>
<g>
</g>
<g>
</g>
<g>
</g>
<g>
</g>
<g>
</g>
<g>
</g>
<g>
</g>
<g>
</g>
<g>
</g>
<g>
</g>
<g>
</g>
<g>
</g>
</svg>
